<svg aria-hidden="true" style="position: absolute; width: 0; height: 0; overflow: hidden;" version="1.1" xmlns="http://www.w3.org/2000/svg" xmlns:xlink="http://www.w3.org/1999/xlink">
<defs>
<symbol id="icon-onoff" viewBox="0 0 32 32">
<path fill="none" stroke="#fff" style="stroke: var(--color1, #fff)" stroke-linejoin="miter" stroke-linecap="butt" stroke-miterlimit="4" stroke-width="0.4051" d="M21.463 0.643h-10.927c-5.604 0-10.146 4.488-10.146 10.024v10.795c0 5.536 4.543 10.024 10.146 10.024h10.927c5.604 0 10.146-4.488 10.146-10.024v-10.795c0-5.536-4.543-10.024-10.146-10.024z"></path>
<path fill="none" stroke="#fff" style="stroke: var(--color1, #fff)" stroke-linejoin="round" stroke-linecap="round" stroke-miterlimit="4" stroke-width="0.638" d="M22.104 22.095c-3.36 3.32-8.809 3.32-12.169 0s-3.361-8.702 0-12.022c3.36-3.32 8.809-3.32 12.169 0s3.36 8.703 0 12.022z"></path>
<path fill="none" stroke="#fff" style="stroke: var(--color1, #fff)" stroke-linejoin="round" stroke-linecap="round" stroke-miterlimit="4" stroke-width="0.638" d="M18.627 20.205c-0.342 0.342-0.748 0.614-1.197 0.8s-0.93 0.283-1.416 0.285-0.968-0.092-1.418-0.275c-0.45-0.183-0.858-0.452-1.202-0.792s-0.616-0.744-0.802-1.188c-0.185-0.444-0.28-0.92-0.278-1.401s0.1-0.956 0.288-1.399c0.188-0.443 0.464-0.845 0.81-1.182 0.693-0.675 1.629-1.053 2.602-1.049s1.906 0.387 2.595 1.067c0.689 0.68 1.077 1.602 1.080 2.564s-0.378 1.886-1.062 2.571z"></path>
<path fill="none" stroke="#fff" style="stroke: var(--color1, #fff)" stroke-linejoin="round" stroke-linecap="round" stroke-miterlimit="4" stroke-width="0.638" d="M16.020 16.415v2.429"></path>
<path fill="none" stroke="#fff" style="stroke: var(--color1, #fff)" stroke-linejoin="round" stroke-linecap="round" stroke-miterlimit="4" stroke-width="0.638" d="M16.889 11.621c-0.231 0.224-0.543 0.349-0.867 0.348s-0.635-0.129-0.864-0.356c-0.229-0.226-0.359-0.533-0.36-0.853s0.125-0.628 0.352-0.857c0.231-0.224 0.543-0.349 0.867-0.348s0.635 0.129 0.864 0.356c0.229 0.226 0.359 0.533 0.36 0.853s-0.125 0.628-0.352 0.857v0z"></path>
</symbol>
<symbol id="icon-lamp" viewBox="0 0 32 32">
<path stroke-linejoin="miter" stroke-linecap="butt" stroke-miterlimit="4" stroke-width="0.4051" d="M21.463 0.643h-10.927c-5.604 0-10.146 4.488-10.146 10.024v10.795c0 5.536 4.543 10.024 10.146 10.024h10.927c5.604 0 10.146-4.488 10.146-10.024v-10.795c0-5.536-4.543-10.024-10.146-10.024z"></path>
<path fill="none" stroke="#fff" style="stroke: var(--color1, #fff)" stroke-linejoin="round" stroke-linecap="round" stroke-miterlimit="4" stroke-width="0.638" d="M12.594 21.257h6.492"></path>
<path fill="none" stroke="#fff" style="stroke: var(--color1, #fff)" stroke-linejoin="round" stroke-linecap="round" stroke-miterlimit="4" stroke-width="0.638" d="M13.522 22.876h4.638"></path>
<path fill="none" stroke="#fff" style="stroke: var(--color1, #fff)" stroke-linejoin="round" stroke-linecap="round" stroke-miterlimit="4" stroke-width="0.638" d="M17.232 24.495h-2.782"></path>
<path fill="none" stroke="#fff" style="stroke: var(--color1, #fff)" stroke-linejoin="round" stroke-linecap="round" stroke-miterlimit="4" stroke-width="0.638" d="M19.060 19.637c0-0.871 0.218-1.729 0.635-2.498l1.373-2.537c0.008-0.015 0.017-0.029 0.024-0.044l0.009-0.017h-0.003c0.287-0.604 0.437-1.262 0.437-1.929 0-2.778-2.549-5.030-5.694-5.030s-5.694 2.252-5.694 5.030c0 0.684 0.157 1.335 0.437 1.929h-0.002l0.009 0.017c0.007 0.015 0.016 0.030 0.025 0.045l1.372 2.536c0.417 0.769 0.635 1.627 0.635 2.499"></path>
</symbol>
<symbol id="icon-wifi" viewBox="0 0 32 32">
<path fill="none" stroke="#fefefe" style="stroke: var(--color2, #fefefe)" stroke-linejoin="miter" stroke-linecap="butt" stroke-miterlimit="4" stroke-width="0.6076" d="M10.537 0.39h10.927c5.604 0 10.146 4.543 10.146 10.146v10.927c0 5.603-4.543 10.146-10.146 10.146h-10.927c-5.604 0-10.146-4.543-10.146-10.146v-10.927c0-5.604 4.543-10.146 10.146-10.146z"></path>
<path fill="none" stroke="#fefefe" style="stroke: var(--color2, #fefefe)" stroke-linejoin="miter" stroke-linecap="butt" stroke-miterlimit="4" stroke-width="0.6076" d="M18.721 10.267c-0.804-0.475-1.74-0.748-2.741-0.748-0.994 0-1.925 0.269-2.725 0.738"></path>
<path fill="none" stroke="#fefefe" style="stroke: var(--color2, #fefefe)" stroke-linejoin="miter" stroke-linecap="butt" stroke-miterlimit="4" stroke-width="0.6076" d="M20.725 8.408c-1.333-0.977-2.978-1.553-4.756-1.553-1.762 0-3.392 0.565-4.718 1.525"></path>
<path fill="none" stroke="#fefefe" style="stroke: var(--color2, #fefefe)" stroke-linejoin="miter" stroke-linecap="butt" stroke-miterlimit="4" stroke-width="0.6076" d="M18.035 24.754h-4.071c-2.115 0-3.829-1.714-3.829-3.829v-4.071c0-2.115 1.714-3.829 3.829-3.829h4.071c2.115 0 3.829 1.715 3.829 3.829v4.071c0 2.115-1.714 3.829-3.829 3.829z"></path>
<path fill="none" stroke="#fefefe" style="stroke: var(--color2, #fefefe)" stroke-linejoin="miter" stroke-linecap="butt" stroke-miterlimit="4" stroke-width="0.6076" d="M14.287 18.89c0-0.946 0.767-1.714 1.713-1.714s1.713 0.767 1.713 1.714c0 0.946-0.767 1.714-1.713 1.714s-1.713-0.767-1.713-1.714z"></path>
</symbol>
<symbol id="icon-rectangle" viewBox="0 0 32 32">
<path fill="#fff" style="fill: var(--color1, #fff); stroke: var(--color1, #fff)" stroke="#fff" stroke-linejoin="miter" stroke-linecap="butt" stroke-miterlimit="4" stroke-width="4" d="M2 2h28v28h-28v-28z"></path>
</symbol>
</defs>
</svg>
